<?xml version="1.0" encoding="iso-8859-1"?>
<!-- Uploaded to: SVG Repo, www.svgrepo.com, Generator: SVG Repo Mixer Tools -->
<!DOCTYPE svg PUBLIC "-//W3C//DTD SVG 1.1//EN" "http://www.w3.org/Graphics/SVG/1.1/DTD/svg11.dtd">
<svg fill="#000000" version="1.1" id="Capa_1" xmlns="http://www.w3.org/2000/svg" xmlns:xlink="http://www.w3.org/1999/xlink" 
	 width="800px" height="800px" viewBox="0 0 47.668 47.668"
	 xml:space="preserve">
<g>
	<path d="M40.001,39.668h-2.338c-0.624-6.812-2.941-12.455-6.283-15.834c3.342-3.379,5.659-9.021,6.283-15.834h2.338
		c2.209,0,4-1.791,4-4s-1.791-4-4-4H7.667c-2.209,0-4,1.791-4,4s1.791,4,4,4h2.338c0.624,6.813,2.942,12.455,6.283,15.834
		c-3.341,3.379-5.659,9.021-6.283,15.834H7.667c-2.209,0-4,1.791-4,4s1.791,4,4,4h32.334c2.209,0,4-1.791,4-4
		S42.21,39.668,40.001,39.668z M29.608,8c-0.813,6.883-3.735,11.25-5.774,11.25S18.873,14.883,18.059,8H29.608z M23.834,28.418
		c2.039,0,4.961,4.367,5.774,11.25H18.059C18.873,32.785,21.795,28.418,23.834,28.418z"/>
</g>
</svg>